<svg height="512" viewBox="0 0 58 54" width="512" xmlns="http://www.w3.org/2000/svg"><g id="001---Swiss-Cheese" fill="none" transform="translate(0 -1)"><path id="Shape" d="m57 26c.3350794-.0039982.669818.0227809 1 .08v-8.08c-32.931-18.059-30.873-17-31.267-17-24.747.1-26.733 14-26.733 14v38c.0032948 1.1032019.89679813 1.9967052 2 2h54c1.1032019-.0032948 1.9967052-.8967981 2-2v-13.08c-3.3468396.5283411-6.5842079-1.4437029-7.65-4.66-.720099-2.141572-.3657319-4.498817.9521982-6.3340099 1.3179302-1.835193 3.438406-2.9241201 5.6978018-2.9259901z" fill="#f0c419"/><path id="Shape" d="m58 18h-58v-3s1.986-13.9 26.733-14c.413 0-1.668-1.061 31.267 17z" fill="#f3d55b"/><circle id="Oval" cx="46" cy="46" fill="#b19046" r="3"/><ellipse id="Oval" cx="26" cy="41" fill="#b19046" rx="7.75" ry="6"/><path id="Shape" d="m26 51c-2.4750097.0012479-4.811233-1.1431405-6.327354-3.0994257-1.516121-1.9562851-2.0413988-4.5041563-1.422646-6.9005743.9136912 3.5328228 4.100936 6.0006235 7.75 6.0006235s6.8363088-2.4678007 7.75-6.0006235c.6187528 2.396418.093475 4.9442892-1.422646 6.9005743-1.516121 1.9562852-3.8523443 3.1006736-6.327354 3.0994257z" fill="#f29c1f"/><circle id="Oval" cx="8" cy="37" fill="#b19046" r="3"/><path id="Shape" d="m19.32 18c1.4008512 2.9417281.5868033 6.4609926-1.9635515 8.4887595-2.5503549 2.0277669-6.1625421 2.0277669-8.71289696 0-2.55035482-2.0277669-3.36440277-5.5470314-1.96355154-8.4887595z" fill="#f29c1f"/><circle id="Oval" cx="40" cy="28" fill="#b19046" r="4"/><g fill="#f29c1f"><circle id="Oval" cx="25" cy="29" r="1"/><circle id="Oval" cx="31" cy="23" r="1"/><circle id="Oval" cx="10" cy="48" r="1"/><circle id="Oval" cx="41" cy="38" r="1"/><path id="Shape" d="m6.68 18c1.59218119-1.8427784 3.8856268-2.9314393 6.32-3 2.4343732.0685607 4.7278188 1.1572216 6.32 3z"/></g></g></svg>