<?xml version="1.0" encoding="iso-8859-1"?>
<!-- Generator: Adobe Illustrator 19.0.0, SVG Export Plug-In . SVG Version: 6.00 Build 0)  -->
<svg version="1.1" id="Layer_1" xmlns="http://www.w3.org/2000/svg" xmlns:xlink="http://www.w3.org/1999/xlink" x="0px" y="0px"
	 viewBox="0 0 512 512" style="enable-background:new 0 0 512 512;" xml:space="preserve">
<polygon style="fill:#E60048;" points="256,10.842 256,83.92 335.155,47.381 "/>
<polygon style="fill:#C8815C;" points="478.242,442.081 256,464.587 35.114,442.081 35.114,374.565 478.242,374.565 "/>
<polygon style="fill:#FFE368;" points="478.242,374.565 35.114,374.565 35.114,273.29 256,250.784 478.242,273.29 "/>
<path style="fill:#C8815C;" d="M256,2.402c-4.662,0-8.44,3.778-8.44,8.44v134.601h16.879V10.842
	C264.44,6.18,260.662,2.402,256,2.402z"/>
<g>
	<path style="fill:#E4B780;" d="M135.033,442.081H33.758c0,37.288,30.229,67.517,67.516,67.517h309.451
		c37.288,0,67.517-30.228,67.517-67.517H135.033z"/>
	<path style="fill:#E4B780;" d="M365.714,134.19H146.286c-61.89,0-112.527,50.637-112.527,112.527v26.572h444.484v-26.572
		C478.242,184.828,427.604,134.19,365.714,134.19z"/>
</g>
<path style="fill:#AD4A38;" d="M478.242,340.806H33.758C15.191,340.806,0,355.998,0,374.565c0,18.567,15.191,33.758,33.758,33.758
	h444.484c18.567,0,33.758-15.191,33.758-33.758C512,355.998,496.809,340.806,478.242,340.806z"/>
<g>
	<path style="fill:#C8815C;" d="M365.152,467.4c4.653,0,8.44,3.787,8.44,8.44c0,4.653-3.787,8.44-8.44,8.44s-8.44-3.787-8.44-8.44
		C356.712,471.186,360.499,467.4,365.152,467.4z"/>
	<path style="fill:#C8815C;" d="M113.09,190.187c-4.653,0-8.44,3.787-8.44,8.44c0,4.653,3.787,8.44,8.44,8.44
		c4.653,0,8.44-3.787,8.44-8.44C121.53,193.974,117.743,190.187,113.09,190.187z"/>
	<path style="fill:#C8815C;" d="M390.47,198.627c0,4.653,3.787,8.44,8.44,8.44s8.44-3.787,8.44-8.44c0-4.653-3.787-8.44-8.44-8.44
		S390.47,193.973,390.47,198.627z"/>
	<path style="fill:#C8815C;" d="M146.848,213.818c-4.653,0-8.44,3.787-8.44,8.44s3.787,8.44,8.44,8.44s8.44-3.787,8.44-8.44
		S151.501,213.818,146.848,213.818z"/>
</g>
<path style="fill:#FFD102;" d="M478.242,298.609H33.758c-4.662,0-8.44,3.778-8.44,8.44s3.778,8.44,8.44,8.44h96.035l122.172,66.49
	c1.257,0.684,2.647,1.026,4.034,1.026c1.387,0,2.777-0.342,4.034-1.026l122.172-66.49h96.035c4.662,0,8.44-3.778,8.44-8.44
	S482.904,298.609,478.242,298.609z"/>
</svg>
