<?xml version="1.0" encoding="iso-8859-1"?>
<!-- Generator: Adobe Illustrator 19.0.0, SVG Export Plug-In . SVG Version: 6.00 Build 0)  -->
<svg version="1.1" id="Layer_1" xmlns="http://www.w3.org/2000/svg" xmlns:xlink="http://www.w3.org/1999/xlink" x="0px" y="0px"
	 viewBox="0 0 512 512" style="enable-background:new 0 0 512 512;" xml:space="preserve">
<polygon style="fill:#C8FEFF;" points="305.67,67.516 343.006,141.503 256,265.284 168.994,141.503 206.33,67.516 206.33,22.505 
	305.67,22.505 "/>
<path style="fill:#E8D6BD;" d="M367.785,213.093v276.401c0,12.378-10.127,22.505-22.505,22.505H166.721
	c-12.378,0-22.505-10.127-22.505-22.505V213.093c0-12.378,4.557-31.541,10.139-42.592l14.64-28.998
	c21.752,0,21.752,16.26,43.503,16.26s21.752-16.26,43.503-16.26c21.752,0,21.752,16.26,43.503,16.26s21.752-16.26,43.503-16.26
	l14.64,28.998C363.227,181.552,367.785,200.715,367.785,213.093z"/>
<g>
	<path style="fill:#FFFFFF;" d="M177.972,486.681c-4.661,0-8.44-3.778-8.44-8.44v-33.758c0-4.662,3.779-8.44,8.44-8.44
		c4.661,0,8.44,3.778,8.44,8.44v33.758C186.412,482.904,182.633,486.681,177.972,486.681z"/>
	<path style="fill:#FFFFFF;" d="M177.972,419.165c-4.661,0-8.44-3.778-8.44-8.44V213.098c0-8.317,3.677-23.765,7.425-31.189
		c2.1-4.16,7.176-5.831,11.337-3.73s5.832,7.176,3.731,11.337c-2.571,5.093-5.614,17.876-5.614,23.582v197.628
		C186.412,415.387,182.633,419.165,177.972,419.165z"/>
	<path style="fill:#FFFFFF;" d="M271.911,75.956h-31.823c-4.661,0-8.44-3.778-8.44-8.44s3.779-8.44,8.44-8.44h31.822
		c4.661,0,8.44,3.778,8.44,8.44S276.572,75.956,271.911,75.956z"/>
</g>
<rect x="200.704" style="fill:#51C0C2;" width="110.592" height="33.758"/>
<g>
</g>
<g>
</g>
<g>
</g>
<g>
</g>
<g>
</g>
<g>
</g>
<g>
</g>
<g>
</g>
<g>
</g>
<g>
</g>
<g>
</g>
<g>
</g>
<g>
</g>
<g>
</g>
<g>
</g>
</svg>
