<?xml version="1.0" encoding="iso-8859-1"?>
<!-- Generator: Adobe Illustrator 19.1.0, SVG Export Plug-In . SVG Version: 6.00 Build 0)  -->
<svg version="1.1" id="Capa_1" xmlns="http://www.w3.org/2000/svg" xmlns:xlink="http://www.w3.org/1999/xlink" x="0px" y="0px"
	 viewBox="0 0 470 470" style="enable-background:new 0 0 470 470;" xml:space="preserve">
<g>
	<path style="fill:#9345EB;" d="M396.834,314.166c-11.041-11.041-25.72-17.122-41.334-17.122c-15.614,0-30.293,6.081-41.334,17.122
		c-11.041,11.04-17.121,25.72-17.121,41.334c0,15.613,6.081,30.293,17.121,41.334c11.041,11.041,25.72,17.121,41.334,17.121
		c15.614,0,30.293-6.08,41.334-17.121c11.041-11.041,17.121-25.721,17.121-41.334C413.955,339.885,407.875,325.206,396.834,314.166z
		"/>
	<path style="fill:#D4B5F7;" d="M60.205,203.412c3.488-7.974,7.814-21.301,5.26-34.226c-0.987-0.887-1.959-1.798-2.905-2.744
		c-0.948-0.948-1.861-1.919-2.746-2.906c-12.996-2.578-26.288,1.745-34.236,5.24c3.804,4.895,9.484,11.764,16.184,18.463
		C48.473,193.95,55.321,199.616,60.205,203.412z"/>
	<path style="fill:#D4B5F7;" d="M169.187,65.465c12.998,2.581,26.289-1.746,34.236-5.241c-3.804-4.895-9.484-11.764-16.184-18.463
		c-6.69-6.69-13.55-12.365-18.444-16.169c-3.488,7.974-7.812,21.299-5.258,34.223c0.987,0.887,1.958,1.798,2.904,2.744
		C167.388,63.506,168.299,64.477,169.187,65.465z"/>
	<path style="fill:#D4B5F7;" d="M409.796,266.588c-3.487,7.974-7.813,21.301-5.259,34.226c0.987,0.887,1.958,1.798,2.904,2.744
		c0.946,0.946,1.858,1.918,2.745,2.906c12.997,2.58,26.288-1.745,34.237-5.241c-3.804-4.895-9.484-11.763-16.184-18.462
		C421.528,276.05,414.68,270.384,409.796,266.588z"/>
	<path style="fill:#D4B5F7;" d="M300.815,404.536c-12.922-2.555-26.246,1.769-34.223,5.258c3.804,4.894,9.479,11.754,16.169,18.444
		c6.711,6.711,13.559,12.377,18.443,16.173c3.487-7.974,7.813-21.3,5.259-34.226c-0.987-0.887-1.959-1.798-2.904-2.744
		C302.613,406.495,301.702,405.523,300.815,404.536z"/>
	<path style="fill:#9345EB;" d="M73.166,155.835c11.041,11.04,25.72,17.12,41.334,17.12s30.293-6.08,41.334-17.121
		c11.041-11.041,17.121-25.721,17.121-41.334c0-15.614-6.08-30.294-17.121-41.334c-11.041-11.041-25.72-17.122-41.334-17.122
		s-30.293,6.081-41.334,17.122C50.375,95.958,50.375,133.043,73.166,155.835z"/>
	<path style="fill:#FFB033;" d="M110.366,343.53c-37.024-8.406-75.399,7.841-91.309,15.899c2.957,4.46,4.235,8.338,5.412,11.902
		c1.512,4.584,2.706,8.204,8.027,13.524c5.32,5.321,8.941,6.516,13.525,8.027c5.433,1.792,11.59,3.824,19.432,11.665
		c7.842,7.842,9.873,14,11.665,19.433c1.512,4.584,2.707,8.204,8.027,13.525c5.32,5.319,8.94,6.514,13.524,8.025
		c3.565,1.177,7.442,2.455,11.902,5.411c8.056-15.903,24.305-54.281,15.898-91.308c-3.013-2.28-5.896-4.771-8.615-7.489
		C115.137,349.427,112.646,346.543,110.366,343.53z"/>
	<path style="fill:#FFB033;" d="M450.942,110.571c-2.956-4.46-4.235-8.338-5.411-11.902c-1.512-4.584-2.707-8.204-8.027-13.524
		s-8.941-6.515-13.524-8.027c-5.433-1.792-11.59-3.822-19.432-11.664c-7.842-7.843-9.873-14-11.666-19.433
		c-1.512-4.584-2.706-8.204-8.027-13.524c-5.32-5.321-8.941-6.516-13.525-8.027c-3.565-1.176-7.442-2.455-11.902-5.411
		c-8.056,15.904-24.304,54.281-15.899,91.308c3.013,2.28,5.896,4.771,8.615,7.489c2.729,2.729,5.206,5.614,7.468,8.61
		C396.644,134.883,435.031,118.631,450.942,110.571z"/>
	<path style="fill:#FFD085;" d="M246.245,171.684c-1.464,1.464-3.384,2.196-5.303,2.196s-3.839-0.732-5.303-2.196l-15.91-15.91
		l-63.954,63.954l78.587,78.588c2.929,2.93,2.929,7.678,0,10.607c-0.003,0.003,0.848,0.854,0.848,0.854
		c0.544,0.545,1.076,1.076,1.597,1.598l4.455,4.455c1.371,1.371,2.612,2.612,3.703,3.703l69.262-69.261l-57.374-57.374
		c-2.929-2.929-2.929-7.677,0-10.607L246.245,171.684z"/>
	<path style="fill:#FFB033;" d="M236.807,311.374l-1.597-1.598l-0.851-0.851c-1.464,1.462-3.383,2.194-5.3,2.194
		c-1.919,0-3.839-0.732-5.303-2.196l-78.588-78.588l-16.706,16.706c-12.621,12.62-19.571,29.4-19.571,47.248
		c0,17.849,6.95,34.628,19.571,47.248c12.621,12.621,29.401,19.571,47.25,19.571c17.848,0,34.628-6.95,47.249-19.571l22.005-22.005
		l-3.703-3.703L236.807,311.374z"/>
	<path style="fill:#FFB033;" d="M341.539,128.461c-12.621-12.621-29.4-19.571-47.249-19.571s-34.628,6.95-47.249,19.571
		l-16.706,16.706l15.91,15.91c2.929,2.93,2.929,7.677,0,10.607l10.606,10.606c2.929-2.928,7.678-2.928,10.607,0l57.375,57.375
		l16.706-16.706C367.592,196.906,367.591,154.514,341.539,128.461z"/>
	<path style="fill:#081C1F;" d="M467.803,107.494c-5.32-5.32-6.515-8.94-8.027-13.524c-1.792-5.433-3.823-11.591-11.665-19.433
		s-14-9.872-19.432-11.664c-4.583-1.513-8.204-2.707-13.524-8.026c-5.32-5.321-6.515-8.941-8.027-13.525
		c-1.792-5.433-3.823-11.591-11.666-19.433c-7.842-7.841-13.999-9.873-19.432-11.665c-4.584-1.512-8.205-2.706-13.525-8.027
		c-1.619-1.618-3.888-2.406-6.163-2.146c-2.274,0.262-4.304,1.549-5.512,3.493c-1.314,2.116-29.141,47.665-24.082,97.036
		c-10.116-4.373-21.107-6.689-32.459-6.689c-21.855,0-42.402,8.511-57.855,23.964l-96.566,96.567
		c-0.008,0.008-22.013,22.013-22.013,22.013c-15.454,15.454-23.964,36.001-23.964,57.855c0,11.353,2.316,22.344,6.689,32.46
		c-49.371-5.057-94.921,22.766-97.036,24.081c-1.945,1.208-3.232,3.237-3.494,5.512s0.528,4.544,2.147,6.162
		c5.32,5.321,6.515,8.941,8.027,13.525c1.792,5.433,3.823,11.591,11.666,19.433c7.842,7.841,13.999,9.873,19.432,11.665
		c4.584,1.512,8.205,2.706,13.525,8.027c5.32,5.32,6.515,8.94,8.027,13.524c1.792,5.433,3.823,11.59,11.665,19.433
		c7.842,7.842,14,9.872,19.433,11.664c4.583,1.513,8.204,2.707,13.524,8.027c1.415,1.414,3.326,2.196,5.303,2.196
		c0.286,0,0.573-0.017,0.86-0.05c2.274-0.262,4.304-1.549,5.512-3.493c1.314-2.115,29.142-47.664,24.082-97.037
		c10.116,4.373,21.108,6.689,32.46,6.689c21.854,0,42.402-8.512,57.855-23.964l118.58-118.579
		c24.381-24.381,30.105-60.439,17.219-90.33c4.124,0.425,8.222,0.634,12.271,0.634c44.431-0.002,82.882-23.496,84.821-24.701
		c1.945-1.208,3.231-3.237,3.494-5.512S469.422,109.113,467.803,107.494z M324.833,239.664l-57.375-57.375
		c-2.929-2.928-7.678-2.928-10.606,0c-2.929,2.93-2.929,7.678,0,10.607l57.374,57.374l-69.262,69.261l-22.005,22.005
		c-12.621,12.621-29.4,19.571-47.249,19.571c-17.849,0-34.628-6.95-47.25-19.571c-12.621-12.62-19.571-29.399-19.571-47.248
		c0-17.848,6.95-34.628,19.571-47.248l16.706-16.706l78.588,78.588c1.464,1.464,3.384,2.196,5.303,2.196
		c1.918,0,3.836-0.732,5.3-2.194c2.932-2.932,2.932-7.68,0.003-10.61l-78.587-78.588l63.954-63.954l15.91,15.91
		c1.464,1.464,3.384,2.196,5.303,2.196s3.839-0.732,5.303-2.196c2.929-2.93,2.929-7.678,0-10.607l-15.91-15.91l16.706-16.706
		c12.621-12.621,29.401-19.571,47.249-19.571s34.628,6.95,47.249,19.571c26.053,26.053,26.053,68.444,0,94.497L324.833,239.664z
		 M110.571,450.942c-4.46-2.956-8.337-4.234-11.902-5.411c-4.584-1.512-8.204-2.706-13.524-8.025
		c-5.321-5.321-6.515-8.941-8.027-13.525c-1.792-5.433-3.823-11.591-11.665-19.433c-7.842-7.841-13.999-9.873-19.432-11.665
		c-4.584-1.512-8.205-2.706-13.525-8.027c-5.321-5.32-6.515-8.94-8.027-13.524c-1.176-3.564-2.455-7.442-5.412-11.902
		c15.909-8.057,54.285-24.305,91.309-15.899c2.28,3.013,4.771,5.897,7.489,8.615c2.718,2.718,5.602,5.208,8.615,7.489
		C134.876,396.661,118.627,435.039,110.571,450.942z M352.145,117.854c-2.718-2.718-5.602-5.209-8.615-7.489
		c-8.406-37.027,7.843-75.404,15.899-91.308c4.46,2.956,8.337,4.235,11.902,5.411c4.584,1.512,8.205,2.706,13.525,8.027
		c5.321,5.32,6.515,8.94,8.027,13.524c1.792,5.433,3.824,11.59,11.666,19.433c7.842,7.842,14,9.872,19.432,11.664
		c4.583,1.513,8.204,2.707,13.524,8.027s6.515,8.94,8.027,13.524c1.176,3.564,2.455,7.442,5.411,11.902
		c-15.912,8.06-54.299,24.312-91.329,15.894C357.351,123.468,354.874,120.583,352.145,117.854z"/>
	<path style="fill:#081C1F;" d="M31.155,197.846c13.352,13.352,26.918,22.674,27.489,23.063c1.257,0.859,2.734,1.309,4.232,1.309
		c0.516,0,1.034-0.053,1.547-0.161c2.002-0.422,3.745-1.644,4.825-3.382c0.561-0.905,11.066-18.116,11.928-38.696
		c10.197,5.203,21.544,7.976,33.324,7.976c19.621,0,38.067-7.641,51.941-21.514c13.874-13.875,21.515-32.321,21.515-51.941
		c0-11.778-2.772-23.124-7.974-33.321c20.579-0.863,37.789-11.37,38.694-11.932c1.738-1.079,2.96-2.822,3.382-4.824
		s0.008-4.09-1.147-5.779c-0.39-0.57-9.712-14.138-23.064-27.49c-13.352-13.351-26.918-22.673-27.489-23.062
		c-1.689-1.154-3.776-1.57-5.779-1.147c-2.002,0.422-3.745,1.644-4.824,3.382c-0.562,0.905-11.066,18.115-11.929,38.695
		c-10.197-5.203-21.544-7.976-33.324-7.976c-19.621,0-38.067,7.641-51.941,21.515C39.525,85.594,35.033,120.24,49.05,147.823
		c-20.592,0.854-37.819,11.368-38.725,11.929c-1.738,1.079-2.959,2.822-3.382,4.824c-0.422,2.002-0.008,4.09,1.147,5.779
		C8.481,170.926,17.803,184.494,31.155,197.846z M59.813,163.536c0.886,0.987,1.798,1.958,2.746,2.906
		c0.946,0.946,1.917,1.857,2.905,2.744c2.554,12.925-1.772,26.252-5.26,34.226c-4.884-3.796-11.732-9.462-18.443-16.173
		c-6.7-6.699-12.38-13.568-16.184-18.463C33.526,165.281,46.817,160.958,59.813,163.536z M114.501,56.044
		c15.614,0,30.293,6.081,41.334,17.122c11.041,11.04,17.121,25.72,17.121,41.334c0,15.613-6.081,30.293-17.121,41.334
		c-11.041,11.041-25.72,17.121-41.334,17.121s-30.293-6.08-41.334-17.12c-22.792-22.793-22.792-59.878,0-82.669
		C84.207,62.126,98.886,56.044,114.501,56.044z M168.796,25.592c4.894,3.804,11.753,9.479,18.444,16.169
		c6.7,6.699,12.38,13.568,16.184,18.463c-7.948,3.495-21.238,7.822-34.236,5.241c-0.888-0.988-1.799-1.96-2.746-2.906
		c-0.946-0.946-1.917-1.857-2.904-2.744C160.983,46.891,165.308,33.566,168.796,25.592z"/>
	<path style="fill:#081C1F;" d="M438.845,272.154c-13.352-13.352-26.918-22.674-27.489-23.063c-1.689-1.154-3.776-1.569-5.779-1.147
		c-2.002,0.422-3.745,1.644-4.824,3.382c-0.562,0.905-11.066,18.115-11.929,38.695c-10.197-5.203-21.544-7.976-33.323-7.976
		c-19.621,0-38.067,7.641-51.941,21.515s-21.515,32.32-21.515,51.941c0,11.779,2.773,23.126,7.976,33.323
		c-20.579,0.863-37.791,11.367-38.696,11.928c-1.738,1.079-2.959,2.822-3.382,4.824c-0.422,2.002-0.008,4.09,1.147,5.779
		c0.39,0.57,9.712,14.138,23.064,27.49c13.352,13.352,26.918,22.674,27.489,23.063c1.257,0.859,2.734,1.309,4.232,1.309
		c0.516,0,1.034-0.053,1.547-0.161c2.002-0.422,3.745-1.644,4.824-3.382c0.562-0.905,11.066-18.115,11.929-38.696
		c10.198,5.203,21.545,7.976,33.324,7.976c19.62,0,38.066-7.641,51.94-21.514c13.874-13.875,21.515-32.321,21.515-51.941
		c0-11.778-2.772-23.124-7.974-33.321c20.579-0.863,37.789-11.37,38.694-11.932c1.738-1.079,2.96-2.822,3.382-4.824
		s0.007-4.09-1.147-5.779C461.519,299.072,452.198,285.506,438.845,272.154z M410.186,306.464c-0.888-0.988-1.799-1.96-2.745-2.906
		c-0.946-0.946-1.917-1.857-2.904-2.744c-2.554-12.925,1.772-26.252,5.259-34.226c4.884,3.796,11.732,9.462,18.443,16.173
		c6.7,6.699,12.38,13.567,16.184,18.462C436.474,304.719,423.183,309.044,410.186,306.464z M355.5,413.955
		c-15.614,0-30.293-6.08-41.334-17.121c-11.041-11.041-17.121-25.721-17.121-41.334c0-15.614,6.081-30.294,17.121-41.334
		c11.041-11.041,25.72-17.122,41.334-17.122c15.614,0,30.293,6.081,41.334,17.122c11.041,11.04,17.121,25.72,17.121,41.334
		c0,15.613-6.081,30.293-17.121,41.334C385.793,407.875,371.114,413.955,355.5,413.955z M301.204,444.411
		c-4.884-3.796-11.732-9.462-18.443-16.173c-6.69-6.69-12.366-13.551-16.169-18.444c7.978-3.489,21.301-7.812,34.223-5.258
		c0.888,0.988,1.798,1.959,2.744,2.905c0.946,0.946,1.917,1.856,2.904,2.744C309.017,423.11,304.691,436.437,301.204,444.411z"/>
</g>
<g>
</g>
<g>
</g>
<g>
</g>
<g>
</g>
<g>
</g>
<g>
</g>
<g>
</g>
<g>
</g>
<g>
</g>
<g>
</g>
<g>
</g>
<g>
</g>
<g>
</g>
<g>
</g>
<g>
</g>
</svg>
